<?xml version="1.0" encoding="utf-8"?>
<!-- Generator: Adobe Illustrator 23.0.3, SVG Export Plug-In . SVG Version: 6.00 Build 0)  -->
<svg version="1.1" id="Capa_1" xmlns="http://www.w3.org/2000/svg" xmlns:xlink="http://www.w3.org/1999/xlink" x="0px" y="0px"
	 viewBox="0 0 280 230" style="enable-background:new 0 0 280 230;" xml:space="preserve">
<style type="text/css">
	.st0{fill:#FFFFFF;stroke:#C1C1C1;stroke-miterlimit:10;}
	.st1{fill:none;}
	.st2{fill:#6F7F89;}
	.st3{fill:#FFFFFF;}
	.st4{fill:#4DA72C;}
</style>
<circle class="st0" cx="127.98" cy="114.34" r="107.73"/>
<rect x="107.58" y="60.34" class="st1" width="42.22" height="12.99"/>
<path class="st2" d="M201.5,74.86c-1.22-1.22-2.87-1.53-4.59-1.53h-34.1V53.84c0-3.58-3.22-6.5-6.81-6.5h-54.58
	c-3.58,0-6.82,2.91-6.82,6.5v19.49H60.49c-3.58,0-6.5,2.16-6.5,5.74v91.7c0,3.58,2.91,6.5,6.5,6.5h136.38c3.58,0,6.5-2.9,6.5-6.5
	l0.04-91.51C203.41,77.54,202.72,76.08,201.5,74.86z M107.58,60.34h42.22v12.99h-42.22V60.34z M190.38,164.28H66.98V86.32h123.42
	L190.38,164.28z"/>
<g>
	<circle class="st3" cx="207.15" cy="171.45" r="44.13"/>
	<g>
		<g>
			<g>
				<g>
					<path class="st4" d="M213.53,165.72v-18.17h-12.11v18.17h-18.17v12.11h18.17V196h12.11v-18.17h18.17v-12.11H213.53z"/>
				</g>
			</g>
			<path class="st4" d="M207.47,220.77c-27.02,0-49-21.98-49-49s21.98-49,49-49s49,21.98,49,49S234.49,220.77,207.47,220.77z
				 M207.47,129.95c-23.06,0-41.82,18.76-41.82,41.82s18.76,41.82,41.82,41.82s41.82-18.76,41.82-41.82S230.54,129.95,207.47,129.95
				z"/>
		</g>
	</g>
</g>
</svg>
