<?xml version="1.0" encoding="utf-8"?>
<!-- Generator: Adobe Illustrator 23.0.3, SVG Export Plug-In . SVG Version: 6.00 Build 0)  -->
<svg version="1.1" id="Capa_1" xmlns="http://www.w3.org/2000/svg" xmlns:xlink="http://www.w3.org/1999/xlink" x="0px" y="0px"
	 viewBox="0 0 280 230" style="enable-background:new 0 0 280 230;" xml:space="preserve">
<style type="text/css">
	.st0{fill:#FFFFFF;stroke:#C1C1C1;stroke-miterlimit:10;}
	.st1{fill:#6F7F89;}
	.st2{fill:#FFFFFF;}
	.st3{fill:#4DA72C;}
</style>
<path class="st0" d="M232.52,114.49c0-59.64-48.35-107.99-107.99-107.99S16.53,54.85,16.53,114.49c0,35.33,16.97,66.69,43.19,86.39
	v-17.55c0-22.05,44.1-34.18,66.14-34.18s66.14,12.13,66.14,34.18v15.43C216.7,178.97,232.52,148.59,232.52,114.49z M124.53,128.89
	c-18.3,0-33.07-14.78-33.07-33.07s14.78-33.07,33.07-33.07s33.07,14.78,33.07,33.07C157.61,114.12,142.83,128.89,124.53,128.89z"/>
<circle class="st1" cx="124.53" cy="95.82" r="33.07"/>
<path class="st1" d="M125.88,149.16c-22.05,0-66.14,12.13-66.14,34.18v17.55c18.05,13.56,40.48,21.6,64.79,21.6
	c25.54,0,49-8.89,67.5-23.72v-15.43C192.02,161.29,147.93,149.16,125.88,149.16z"/>
<g>
	<circle class="st2" cx="214.27" cy="172.28" r="44.13"/>
	<g>
		<g>
			<g>
				<g>
					<path class="st3" d="M220.65,166.55v-18.17h-12.11v18.17h-18.17v12.11h18.17v18.17h12.11v-18.17h18.17v-12.11H220.65z"/>
				</g>
			</g>
			<path class="st3" d="M214.6,221.6c-27.02,0-49-21.98-49-49s21.98-49,49-49s49,21.98,49,49S241.61,221.6,214.6,221.6z
				 M214.6,130.78c-23.06,0-41.82,18.76-41.82,41.82s18.76,41.82,41.82,41.82c23.06,0,41.82-18.76,41.82-41.82
				S237.66,130.78,214.6,130.78z"/>
		</g>
	</g>
</g>
</svg>
