<?xml version="1.0" encoding="utf-8"?>
<!-- Generator: Adobe Illustrator 23.0.3, SVG Export Plug-In . SVG Version: 6.00 Build 0)  -->
<svg version="1.1" id="Capa_1" xmlns="http://www.w3.org/2000/svg" xmlns:xlink="http://www.w3.org/1999/xlink" x="0px" y="0px"
	 viewBox="0 0 32 32" style="enable-background:new 0 0 32 32;" xml:space="preserve">
<style type="text/css">
	.st0{fill:#FFFFFF;}
</style>
<path id="XMLID_142_" class="st0" d="M27.88,13.17c-0.23-0.79-0.71-1.4-1.4-1.76c-0.89-0.46-1.94-0.41-2.66-0.28l-1.53-5.37
	c-0.1-0.37-0.4-0.65-0.77-0.73c-0.37-0.09-0.76,0.04-1.01,0.32c-3.74,4.16-5.27,5.18-9.38,6.99l-3.23,0.93
	c-2.85,0.82-4.5,3.83-3.68,6.69c0.4,1.39,1.31,2.55,2.58,3.25c0.81,0.45,1.69,0.67,2.58,0.67c0.42,0,0.85-0.05,1.27-0.16l0.35,1.23
	c0.18,0.65,0.54,1.23,1.02,1.69l0.54,0.51c0.2,0.19,0.46,0.29,0.72,0.29c0.28,0,0.55-0.11,0.76-0.33c0.4-0.42,0.38-1.08-0.04-1.48
	l-0.54-0.51c-0.21-0.2-0.37-0.46-0.45-0.74l-0.35-1.22l1.5-0.43c4.33-0.65,6.28-0.6,11.57,0.91c0.09,0.03,0.19,0.04,0.29,0.04
	c0.27,0,0.54-0.11,0.74-0.31c0.27-0.27,0.37-0.66,0.27-1.02l-1.53-5.36c0.69-0.26,1.6-0.74,2.12-1.59
	C28.01,14.74,28.11,13.97,27.88,13.17z M7.8,21.39c-0.77-0.43-1.34-1.14-1.58-1.99c-0.5-1.76,0.51-3.61,2.25-4.11l2.35-0.68
	l1.08,3.79l0.74,2.6l-2.36,0.68C9.44,21.91,8.56,21.81,7.8,21.39z M18.42,20.24c-1.17,0-2.35,0.11-3.74,0.3l-1.52-5.34l-0.37-1.31
	c3.33-1.51,5.1-2.68,8.01-5.76l3.71,13.01C22.02,20.51,20.24,20.24,18.42,20.24z M25.83,14.31c-0.17,0.28-0.55,0.5-0.92,0.66
	l-0.52-1.82c0.39-0.05,0.83-0.04,1.12,0.11c0.13,0.07,0.27,0.17,0.36,0.48C25.96,14.04,25.9,14.2,25.83,14.31z M19.22,12.59
	c0.3,0.41,0.2,0.98-0.2,1.28c-0.95,0.69-2.05,1.27-2.1,1.29c-0.13,0.07-0.28,0.1-0.42,0.1c-0.33,0-0.65-0.18-0.81-0.49
	c-0.23-0.45-0.06-1,0.39-1.23c0.01-0.01,1.03-0.54,1.87-1.15C18.35,12.09,18.93,12.18,19.22,12.59z"/>
</svg>
