<?xml version="1.0" encoding="utf-8"?>
<!-- Generator: Adobe Illustrator 23.0.3, SVG Export Plug-In . SVG Version: 6.00 Build 0)  -->
<svg version="1.1" id="Capa_1" xmlns="http://www.w3.org/2000/svg" xmlns:xlink="http://www.w3.org/1999/xlink" x="0px" y="0px"
	 viewBox="0 0 32 32" style="enable-background:new 0 0 32 32;" xml:space="preserve">
<style type="text/css">
	.st0{fill:#6F7F89;}
</style>
<g>
	<g>
		<path class="st0" d="M19.85,3.79v19.59H28V3.79H19.85z M21.86,18.44c0.16,0.42,0.38,0.78,0.66,1.07c0.28,0.29,0.62,0.52,1,0.67
			c0.38,0.16,0.8,0.23,1.25,0.23c0.27,0,0.52-0.05,0.77-0.15c0.25-0.1,0.48-0.24,0.69-0.4c0.21-0.17,0.4-0.36,0.57-0.57
			c0.17-0.21,0.31-0.42,0.42-0.64L27.75,19c-0.16,0.26-0.34,0.5-0.56,0.74c-0.21,0.23-0.46,0.44-0.74,0.62
			c-0.28,0.18-0.6,0.33-0.95,0.44c-0.35,0.11-0.75,0.16-1.19,0.16c-0.63,0-1.21-0.11-1.72-0.32c-0.52-0.21-0.96-0.5-1.32-0.86
			c-0.37-0.36-0.65-0.78-0.85-1.26c-0.2-0.48-0.3-0.99-0.3-1.52c0-0.36,0.05-0.7,0.14-1.04c0.09-0.34,0.23-0.66,0.4-0.95
			c0.17-0.3,0.38-0.57,0.63-0.81c0.25-0.25,0.53-0.46,0.85-0.63c0.32-0.18,0.66-0.31,1.04-0.41c0.38-0.1,0.78-0.15,1.2-0.15
			c0.4,0,0.78,0.05,1.12,0.16c0.34,0.11,0.65,0.25,0.94,0.43c0.28,0.18,0.53,0.39,0.75,0.62c0.22,0.24,0.41,0.48,0.56,0.74
			l-0.55,0.37c-0.16-0.31-0.33-0.58-0.5-0.8c-0.18-0.22-0.36-0.41-0.56-0.56c-0.2-0.15-0.41-0.25-0.64-0.32
			c-0.22-0.07-0.47-0.1-0.72-0.1c-0.44,0-0.85,0.08-1.24,0.24s-0.71,0.39-1,0.69c-0.28,0.3-0.51,0.66-0.67,1.09
			c-0.16,0.43-0.24,0.91-0.24,1.44C21.62,17.54,21.7,18.02,21.86,18.44z"/>
		<path class="st0" d="M11.49,20.38L8.1,13.01H7.77L4,21.02h0.66l1.23-2.61h3.36l1.2,2.61h1.05V28h8.15V8.41h-8.15V20.38z
			 M6.12,17.9l1.46-3.1l1.42,3.1H6.12z M11.97,15.96c0.09-0.34,0.23-0.66,0.4-0.95c0.17-0.3,0.38-0.57,0.63-0.81
			c0.25-0.25,0.53-0.46,0.85-0.63c0.32-0.18,0.66-0.31,1.04-0.41c0.38-0.1,0.78-0.15,1.2-0.15c0.4,0,0.78,0.05,1.12,0.16
			c0.34,0.11,0.65,0.25,0.94,0.43c0.28,0.18,0.53,0.39,0.75,0.62c0.22,0.24,0.41,0.48,0.56,0.74l-0.55,0.37
			c-0.16-0.31-0.33-0.58-0.5-0.8c-0.18-0.22-0.36-0.41-0.56-0.56c-0.2-0.15-0.41-0.25-0.64-0.32c-0.22-0.07-0.47-0.1-0.72-0.1
			c-0.44,0-0.85,0.08-1.24,0.24s-0.71,0.39-1,0.69c-0.28,0.3-0.51,0.66-0.67,1.09c-0.16,0.43-0.24,0.91-0.24,1.44
			c0,0.54,0.08,1.01,0.24,1.43c0.16,0.42,0.38,0.78,0.66,1.07c0.28,0.29,0.62,0.52,1,0.67c0.38,0.16,0.8,0.23,1.25,0.23
			c0.27,0,0.52-0.05,0.77-0.15c0.25-0.1,0.48-0.24,0.69-0.4c0.21-0.17,0.4-0.36,0.57-0.57c0.17-0.21,0.31-0.42,0.42-0.64L19.46,19
			c-0.16,0.26-0.34,0.5-0.56,0.74c-0.21,0.23-0.46,0.44-0.74,0.62c-0.28,0.18-0.6,0.33-0.95,0.44c-0.35,0.11-0.75,0.16-1.19,0.16
			c-0.63,0-1.21-0.11-1.72-0.32c-0.52-0.21-0.96-0.5-1.32-0.86c-0.37-0.36-0.65-0.78-0.85-1.26c-0.2-0.48-0.3-0.99-0.3-1.52
			C11.83,16.65,11.88,16.3,11.97,15.96z"/>
	</g>
</g>
</svg>
