<?xml version="1.0" encoding="utf-8"?>
<!-- Generator: Adobe Illustrator 23.0.3, SVG Export Plug-In . SVG Version: 6.00 Build 0)  -->
<svg version="1.1" id="Capa_1" xmlns="http://www.w3.org/2000/svg" xmlns:xlink="http://www.w3.org/1999/xlink" x="0px" y="0px"
	 viewBox="0 0 32 32" style="enable-background:new 0 0 32 32;" xml:space="preserve">
<style type="text/css">
	.st0{fill:#6F7F89;}
</style>
<g>
	<g>
		<path id="WhatsApp_9_" class="st0" d="M28,15.69c0,6.46-5.27,11.69-11.78,11.69c-2.07,0-4.01-0.53-5.7-1.45L4,28l2.13-6.27
			c-1.07-1.76-1.69-3.83-1.69-6.04C4.44,9.23,9.71,4,16.22,4C22.73,4,28,9.23,28,15.69z M16.22,5.86c-5.46,0-9.91,4.41-9.91,9.83
			c0,2.15,0.7,4.14,1.89,5.76L6.96,25.1l3.81-1.21c1.56,1.03,3.44,1.63,5.45,1.63c5.46,0,9.91-4.41,9.91-9.83S21.68,5.86,16.22,5.86
			z M22.17,18.38c-0.07-0.12-0.27-0.19-0.55-0.33c-0.29-0.14-1.71-0.84-1.97-0.93c-0.26-0.1-0.46-0.14-0.65,0.14
			c-0.19,0.29-0.75,0.93-0.91,1.12c-0.17,0.19-0.34,0.22-0.63,0.07c-0.29-0.14-1.22-0.45-2.32-1.42c-0.86-0.76-1.44-1.7-1.61-1.98
			c-0.17-0.29-0.02-0.44,0.13-0.58c0.13-0.13,0.29-0.33,0.43-0.5c0.14-0.17,0.19-0.29,0.29-0.48c0.1-0.19,0.05-0.36-0.02-0.5
			c-0.07-0.14-0.65-1.55-0.89-2.13c-0.24-0.57-0.48-0.48-0.65-0.48c-0.17,0-0.36-0.02-0.55-0.02s-0.51,0.07-0.77,0.36
			c-0.26,0.29-1.01,0.98-1.01,2.39c0,1.41,1.03,2.77,1.18,2.96c0.14,0.19,2,3.18,4.93,4.33c2.94,1.15,2.94,0.76,3.47,0.72
			c0.53-0.05,1.71-0.69,1.95-1.36C22.24,19.08,22.24,18.5,22.17,18.38z"/>
	</g>
</g>
</svg>
