<?xml version="1.0" encoding="utf-8"?>
<!-- Generator: Adobe Illustrator 23.0.3, SVG Export Plug-In . SVG Version: 6.00 Build 0)  -->
<svg version="1.1" id="Capa_1" xmlns="http://www.w3.org/2000/svg" xmlns:xlink="http://www.w3.org/1999/xlink" x="0px" y="0px"
	 viewBox="0 0 32 32" style="enable-background:new 0 0 32 32;" xml:space="preserve">
<style type="text/css">
	.st0{fill:#0C3516;}
	.st1{fill:url(#SVGID_1_);}
	.st2{fill:url(#SVGID_2_);}
	.st3{fill:#FFFFFF;}
</style>
<g>
	<g>
		<path class="st0" d="M25.15,28.34H6.35c-1.57,0-2.85-1.28-2.85-2.85V7.87c0-1.57,1.28-2.85,2.85-2.85h18.8
			C26.72,5.02,28,6.3,28,7.87v17.62C28,27.06,26.72,28.34,25.15,28.34z"/>
		<path class="st0" d="M25.15,5.52c1.3,0,2.35,1.05,2.35,2.35v17.62c0,1.3-1.05,2.35-2.35,2.35H6.35c-1.3,0-2.35-1.05-2.35-2.35
			V7.87c0-1.3,1.05-2.35,2.35-2.35H25.15 M25.15,5.02H6.35C4.78,5.02,3.5,6.3,3.5,7.87v17.62c0,1.57,1.28,2.85,2.85,2.85h18.8
			c1.57,0,2.85-1.28,2.85-2.85V7.87C28,6.3,26.72,5.02,25.15,5.02L25.15,5.02z"/>
	</g>
	<g>
		<linearGradient id="SVGID_1_" gradientUnits="userSpaceOnUse" x1="15.75" y1="27.3393" x2="15.75" y2="4.0229">
			<stop  offset="4.528621e-07" style="stop-color:#329130"/>
			<stop  offset="0.9786" style="stop-color:#4DA72C"/>
		</linearGradient>
		<path class="st1" d="M25.15,27.34H6.35c-1.57,0-2.85-1.28-2.85-2.85V6.87c0-1.57,1.28-2.85,2.85-2.85h18.8
			C26.72,4.02,28,5.3,28,6.87v17.62C28,26.06,26.72,27.34,25.15,27.34z"/>
		<linearGradient id="SVGID_2_" gradientUnits="userSpaceOnUse" x1="15.75" y1="27.3393" x2="15.75" y2="4.0229">
			<stop  offset="0.9235" style="stop-color:#339230"/>
			<stop  offset="1" style="stop-color:#A7D47D"/>
		</linearGradient>
		<path class="st2" d="M25.15,4.52c1.3,0,2.35,1.05,2.35,2.35v17.62c0,1.3-1.05,2.35-2.35,2.35H6.35c-1.3,0-2.35-1.05-2.35-2.35
			V6.87c0-1.3,1.05-2.35,2.35-2.35H25.15 M25.15,4.02H6.35C4.78,4.02,3.5,5.3,3.5,6.87v17.62c0,1.57,1.28,2.85,2.85,2.85h18.8
			c1.57,0,2.85-1.28,2.85-2.85V6.87C28,5.3,26.72,4.02,25.15,4.02L25.15,4.02z"/>
	</g>
</g>
<g>
	<path id="WhatsApp" class="st3" d="M23.42,15.47c0,4.13-3.37,7.47-7.53,7.47c-1.32,0-2.56-0.34-3.64-0.93l-4.17,1.32l1.36-4.01
		c-0.69-1.13-1.08-2.45-1.08-3.86c0-4.13,3.37-7.47,7.53-7.47C20.05,8,23.42,11.35,23.42,15.47z M15.89,9.19
		c-3.49,0-6.33,2.82-6.33,6.28c0,1.37,0.45,2.65,1.21,3.68l-0.79,2.33l2.43-0.77c1,0.66,2.2,1.04,3.48,1.04
		c3.49,0,6.33-2.82,6.33-6.28S19.38,9.19,15.89,9.19z M19.69,17.19c-0.05-0.08-0.17-0.12-0.35-0.21c-0.18-0.09-1.09-0.53-1.26-0.6
		c-0.17-0.06-0.29-0.09-0.42,0.09c-0.12,0.18-0.48,0.6-0.58,0.72c-0.11,0.12-0.22,0.14-0.4,0.05c-0.18-0.09-0.78-0.29-1.48-0.91
		c-0.55-0.49-0.92-1.08-1.03-1.27c-0.11-0.18-0.01-0.28,0.08-0.37c0.08-0.08,0.18-0.21,0.28-0.32c0.09-0.11,0.12-0.18,0.18-0.31
		c0.06-0.12,0.03-0.23-0.02-0.32c-0.05-0.09-0.42-0.99-0.57-1.36c-0.15-0.37-0.31-0.31-0.42-0.31c-0.11,0-0.23-0.02-0.35-0.02
		c-0.12,0-0.32,0.05-0.49,0.23c-0.17,0.18-0.65,0.63-0.65,1.53c0,0.9,0.66,1.77,0.75,1.89c0.09,0.12,1.28,2.03,3.15,2.76
		c1.88,0.73,1.88,0.49,2.22,0.46c0.34-0.03,1.09-0.44,1.25-0.87C19.74,17.64,19.74,17.27,19.69,17.19z"/>
</g>
</svg>
